<mxfile host="app.diagrams.net" modified="2021-04-24T07:41:49.904Z" agent="5.0 (Windows NT 10.0; Win64; x64) AppleWebKit/537.36 (KHTML, like Gecko) Chrome/90.0.4430.85 Safari/537.36" etag="O2IWapbyv79sbDuJPi_h" version="14.6.5" type="github" pages="2">
  <diagram id="w83J0_90MkISNmSg9N71" name="Page-1">
    <mxGraphModel dx="976" dy="588" grid="1" gridSize="10" guides="1" tooltips="1" connect="1" arrows="1" fold="1" page="1" pageScale="1" pageWidth="827" pageHeight="1169" math="0" shadow="0">
      <root>
        <mxCell id="0" />
        <mxCell id="1" parent="0" />
        <mxCell id="dygS_VFC9vMr-ybAKveq-6" value="开始新的充值" style="text;html=1;strokeColor=none;fillColor=none;align=center;verticalAlign=middle;whiteSpace=wrap;rounded=0;" parent="1" vertex="1">
          <mxGeometry x="280" y="160" width="90" height="70" as="geometry" />
        </mxCell>
        <mxCell id="dygS_VFC9vMr-ybAKveq-9" value="" style="ellipse;html=1;shape=startState;fillColor=#000000;strokeColor=#ff0000;rounded=0;sketch=0;" parent="1" vertex="1">
          <mxGeometry x="270" y="45" width="30" height="30" as="geometry" />
        </mxCell>
        <mxCell id="dygS_VFC9vMr-ybAKveq-10" value="" style="edgeStyle=orthogonalEdgeStyle;html=1;verticalAlign=bottom;endArrow=open;endSize=8;strokeColor=#ff0000;" parent="1" source="dygS_VFC9vMr-ybAKveq-9" edge="1">
          <mxGeometry relative="1" as="geometry">
            <mxPoint x="285" y="130" as="targetPoint" />
            <Array as="points">
              <mxPoint x="285" y="110" />
              <mxPoint x="285" y="110" />
            </Array>
          </mxGeometry>
        </mxCell>
        <mxCell id="dygS_VFC9vMr-ybAKveq-22" style="edgeStyle=orthogonalEdgeStyle;curved=0;rounded=1;sketch=0;orthogonalLoop=1;jettySize=auto;html=1;exitX=0.5;exitY=1;exitDx=0;exitDy=0;entryX=0.5;entryY=0;entryDx=0;entryDy=0;" parent="1" source="dygS_VFC9vMr-ybAKveq-11" target="dygS_VFC9vMr-ybAKveq-17" edge="1">
          <mxGeometry relative="1" as="geometry" />
        </mxCell>
        <mxCell id="dygS_VFC9vMr-ybAKveq-11" value="空闲" style="rounded=1;whiteSpace=wrap;html=1;arcSize=40;fontColor=#000000;fillColor=#ffffc0;strokeColor=#ff0000;sketch=0;" parent="1" vertex="1">
          <mxGeometry x="240" y="120" width="90" height="40" as="geometry" />
        </mxCell>
        <mxCell id="dygS_VFC9vMr-ybAKveq-18" style="edgeStyle=orthogonalEdgeStyle;curved=0;rounded=1;sketch=0;orthogonalLoop=1;jettySize=auto;html=1;exitX=0.25;exitY=0;exitDx=0;exitDy=0;entryX=0.25;entryY=1;entryDx=0;entryDy=0;" parent="1" source="dygS_VFC9vMr-ybAKveq-17" target="dygS_VFC9vMr-ybAKveq-11" edge="1">
          <mxGeometry relative="1" as="geometry" />
        </mxCell>
        <mxCell id="dygS_VFC9vMr-ybAKveq-24" style="edgeStyle=orthogonalEdgeStyle;curved=0;rounded=1;sketch=0;orthogonalLoop=1;jettySize=auto;html=1;exitX=0.5;exitY=1;exitDx=0;exitDy=0;entryX=0.5;entryY=0;entryDx=0;entryDy=0;" parent="1" source="dygS_VFC9vMr-ybAKveq-17" target="dygS_VFC9vMr-ybAKveq-25" edge="1">
          <mxGeometry relative="1" as="geometry">
            <mxPoint x="285" y="310" as="targetPoint" />
          </mxGeometry>
        </mxCell>
        <mxCell id="dygS_VFC9vMr-ybAKveq-28" style="edgeStyle=orthogonalEdgeStyle;curved=0;rounded=1;sketch=0;orthogonalLoop=1;jettySize=auto;html=1;exitX=0;exitY=0.5;exitDx=0;exitDy=0;entryX=1;entryY=0.5;entryDx=0;entryDy=0;" parent="1" source="dygS_VFC9vMr-ybAKveq-17" target="dygS_VFC9vMr-ybAKveq-33" edge="1">
          <mxGeometry relative="1" as="geometry">
            <mxPoint x="160" y="240" as="targetPoint" />
            <Array as="points" />
          </mxGeometry>
        </mxCell>
        <mxCell id="dygS_VFC9vMr-ybAKveq-17" value="开始充值" style="rounded=1;whiteSpace=wrap;html=1;arcSize=40;fontColor=#000000;fillColor=#ffffc0;strokeColor=#ff0000;sketch=0;" parent="1" vertex="1">
          <mxGeometry x="240" y="220" width="90" height="40" as="geometry" />
        </mxCell>
        <mxCell id="dygS_VFC9vMr-ybAKveq-30" style="edgeStyle=orthogonalEdgeStyle;curved=0;rounded=1;sketch=0;orthogonalLoop=1;jettySize=auto;html=1;exitX=0.5;exitY=1;exitDx=0;exitDy=0;entryX=0.5;entryY=0;entryDx=0;entryDy=0;entryPerimeter=0;" parent="1" source="dygS_VFC9vMr-ybAKveq-25" target="dygS_VFC9vMr-ybAKveq-31" edge="1">
          <mxGeometry relative="1" as="geometry">
            <mxPoint x="285" y="390" as="targetPoint" />
          </mxGeometry>
        </mxCell>
        <mxCell id="dygS_VFC9vMr-ybAKveq-25" value="支付" style="rounded=1;whiteSpace=wrap;html=1;arcSize=40;fontColor=#000000;fillColor=#ffffc0;strokeColor=#ff0000;sketch=0;" parent="1" vertex="1">
          <mxGeometry x="240" y="320" width="90" height="40" as="geometry" />
        </mxCell>
        <mxCell id="dygS_VFC9vMr-ybAKveq-26" value="输入充值金额[输入正确]" style="text;html=1;strokeColor=none;fillColor=none;align=center;verticalAlign=middle;whiteSpace=wrap;rounded=0;" parent="1" vertex="1">
          <mxGeometry x="290" y="250" width="80" height="70" as="geometry" />
        </mxCell>
        <mxCell id="dygS_VFC9vMr-ybAKveq-29" value="输入金额[不合理]" style="text;html=1;strokeColor=none;fillColor=none;align=center;verticalAlign=middle;whiteSpace=wrap;rounded=0;" parent="1" vertex="1">
          <mxGeometry x="170" y="190" width="60" height="70" as="geometry" />
        </mxCell>
        <mxCell id="dygS_VFC9vMr-ybAKveq-34" style="edgeStyle=orthogonalEdgeStyle;curved=0;rounded=1;sketch=0;orthogonalLoop=1;jettySize=auto;html=1;exitX=0;exitY=0.5;exitDx=0;exitDy=0;entryX=0.5;entryY=1;entryDx=0;entryDy=0;" parent="1" source="dygS_VFC9vMr-ybAKveq-25" target="dygS_VFC9vMr-ybAKveq-33" edge="1">
          <mxGeometry relative="1" as="geometry" />
        </mxCell>
        <mxCell id="dygS_VFC9vMr-ybAKveq-39" style="edgeStyle=orthogonalEdgeStyle;curved=0;rounded=1;sketch=0;orthogonalLoop=1;jettySize=auto;html=1;exitX=1;exitY=0.5;exitDx=0;exitDy=0;entryX=1;entryY=0.5;entryDx=0;entryDy=0;" parent="1" source="dygS_VFC9vMr-ybAKveq-31" target="dygS_VFC9vMr-ybAKveq-9" edge="1">
          <mxGeometry relative="1" as="geometry">
            <Array as="points">
              <mxPoint x="420" y="430" />
              <mxPoint x="420" y="60" />
            </Array>
          </mxGeometry>
        </mxCell>
        <mxCell id="dygS_VFC9vMr-ybAKveq-31" value="系统显示成功" style="rounded=1;whiteSpace=wrap;html=1;arcSize=40;fontColor=#000000;fillColor=#ffffc0;strokeColor=#ff0000;sketch=0;" parent="1" vertex="1">
          <mxGeometry x="240" y="410" width="90" height="40" as="geometry" />
        </mxCell>
        <mxCell id="dygS_VFC9vMr-ybAKveq-32" value="支付成功" style="text;html=1;strokeColor=none;fillColor=none;align=center;verticalAlign=middle;whiteSpace=wrap;rounded=0;" parent="1" vertex="1">
          <mxGeometry x="270" y="340" width="90" height="70" as="geometry" />
        </mxCell>
        <mxCell id="dygS_VFC9vMr-ybAKveq-37" style="edgeStyle=orthogonalEdgeStyle;curved=0;rounded=1;sketch=0;orthogonalLoop=1;jettySize=auto;html=1;exitX=0.5;exitY=0;exitDx=0;exitDy=0;entryX=0;entryY=0.5;entryDx=0;entryDy=0;" parent="1" source="dygS_VFC9vMr-ybAKveq-33" target="dygS_VFC9vMr-ybAKveq-11" edge="1">
          <mxGeometry relative="1" as="geometry" />
        </mxCell>
        <mxCell id="dygS_VFC9vMr-ybAKveq-33" value="失败提示" style="rounded=1;whiteSpace=wrap;html=1;arcSize=40;fontColor=#000000;fillColor=#ffffc0;strokeColor=#ff0000;sketch=0;" parent="1" vertex="1">
          <mxGeometry x="50" y="220" width="90" height="40" as="geometry" />
        </mxCell>
        <mxCell id="dygS_VFC9vMr-ybAKveq-35" value="支付失败&lt;br&gt;[未支付或密码错误等]" style="text;html=1;strokeColor=none;fillColor=none;align=center;verticalAlign=middle;whiteSpace=wrap;rounded=0;" parent="1" vertex="1">
          <mxGeometry x="110" y="280" width="120" height="70" as="geometry" />
        </mxCell>
        <mxCell id="dygS_VFC9vMr-ybAKveq-38" value="时钟到时" style="text;html=1;strokeColor=none;fillColor=none;align=center;verticalAlign=middle;whiteSpace=wrap;rounded=0;" parent="1" vertex="1">
          <mxGeometry x="120" y="90" width="60" height="70" as="geometry" />
        </mxCell>
        <mxCell id="dygS_VFC9vMr-ybAKveq-40" value="时钟到时" style="text;html=1;strokeColor=none;fillColor=none;align=center;verticalAlign=middle;whiteSpace=wrap;rounded=0;" parent="1" vertex="1">
          <mxGeometry x="420" y="220" width="60" height="70" as="geometry" />
        </mxCell>
      </root>
    </mxGraphModel>
  </diagram>
  <diagram id="3Yd6SUXCwg6tClSSXrHi" name="Page-2">
    <mxGraphModel dx="976" dy="1757" grid="1" gridSize="10" guides="1" tooltips="1" connect="1" arrows="1" fold="1" page="1" pageScale="1" pageWidth="827" pageHeight="1169" math="0" shadow="0">
      <root>
        <mxCell id="ma5C-SdAuBFSG-p-KBA5-0" />
        <mxCell id="ma5C-SdAuBFSG-p-KBA5-1" parent="ma5C-SdAuBFSG-p-KBA5-0" />
        <mxCell id="5K4OkmX-lsrKd3Rm-_V4-0" value="" style="shape=umlLifeline;participant=umlActor;perimeter=lifelinePerimeter;whiteSpace=wrap;html=1;container=1;collapsible=0;recursiveResize=0;verticalAlign=top;spacingTop=36;outlineConnect=0;rounded=0;sketch=0;" vertex="1" parent="ma5C-SdAuBFSG-p-KBA5-1">
          <mxGeometry x="160" y="-120" width="20" height="310" as="geometry" />
        </mxCell>
        <mxCell id="5K4OkmX-lsrKd3Rm-_V4-1" value="" style="shape=corner;whiteSpace=wrap;html=1;rounded=0;sketch=0;" vertex="1" parent="ma5C-SdAuBFSG-p-KBA5-1">
          <mxGeometry x="160" y="-50" width="20" height="230" as="geometry" />
        </mxCell>
        <mxCell id="5K4OkmX-lsrKd3Rm-_V4-4" value="&lt;font style=&quot;font-size: 16px&quot;&gt;系统&lt;/font&gt;" style="shape=umlLifeline;perimeter=lifelinePerimeter;whiteSpace=wrap;html=1;container=1;collapsible=0;recursiveResize=0;outlineConnect=0;rounded=0;sketch=0;" vertex="1" parent="ma5C-SdAuBFSG-p-KBA5-1">
          <mxGeometry x="330" y="-120" width="70" height="310" as="geometry" />
        </mxCell>
        <mxCell id="5K4OkmX-lsrKd3Rm-_V4-5" value="" style="shape=corner;whiteSpace=wrap;html=1;rounded=0;sketch=0;" vertex="1" parent="ma5C-SdAuBFSG-p-KBA5-1">
          <mxGeometry x="355" y="-50" width="20" height="230" as="geometry" />
        </mxCell>
        <mxCell id="5K4OkmX-lsrKd3Rm-_V4-7" value="" style="endArrow=open;endFill=1;endSize=12;html=1;startArrow=none;" edge="1" parent="ma5C-SdAuBFSG-p-KBA5-1" source="C8eVVzSPJDPYq9IVw-O5-0">
          <mxGeometry width="160" relative="1" as="geometry">
            <mxPoint x="180" y="-30" as="sourcePoint" />
            <mxPoint x="360" y="-30" as="targetPoint" />
          </mxGeometry>
        </mxCell>
        <mxCell id="C8eVVzSPJDPYq9IVw-O5-2" value="" style="html=1;verticalAlign=bottom;endArrow=open;dashed=1;endSize=8;entryX=1.08;entryY=0.386;entryDx=0;entryDy=0;entryPerimeter=0;startArrow=none;" edge="1" parent="ma5C-SdAuBFSG-p-KBA5-1" source="C8eVVzSPJDPYq9IVw-O5-3" target="5K4OkmX-lsrKd3Rm-_V4-1">
          <mxGeometry x="-0.5" y="-70" relative="1" as="geometry">
            <mxPoint x="320" y="30" as="sourcePoint" />
            <mxPoint x="190" y="30" as="targetPoint" />
            <Array as="points" />
            <mxPoint as="offset" />
          </mxGeometry>
        </mxCell>
        <mxCell id="C8eVVzSPJDPYq9IVw-O5-6" value="" style="endArrow=open;endFill=1;endSize=12;html=1;startArrow=none;" edge="1" parent="ma5C-SdAuBFSG-p-KBA5-1" source="C8eVVzSPJDPYq9IVw-O5-7">
          <mxGeometry width="160" relative="1" as="geometry">
            <mxPoint x="175" y="100" as="sourcePoint" />
            <mxPoint x="355" y="100" as="targetPoint" />
          </mxGeometry>
        </mxCell>
        <mxCell id="C8eVVzSPJDPYq9IVw-O5-7" value="进行支付" style="text;html=1;strokeColor=none;fillColor=none;align=center;verticalAlign=middle;whiteSpace=wrap;rounded=0;" vertex="1" parent="ma5C-SdAuBFSG-p-KBA5-1">
          <mxGeometry x="235" y="80" width="60" height="40" as="geometry" />
        </mxCell>
        <mxCell id="C8eVVzSPJDPYq9IVw-O5-8" value="" style="endArrow=none;endFill=1;endSize=12;html=1;" edge="1" parent="ma5C-SdAuBFSG-p-KBA5-1" target="C8eVVzSPJDPYq9IVw-O5-7">
          <mxGeometry width="160" relative="1" as="geometry">
            <mxPoint x="175" y="100" as="sourcePoint" />
            <mxPoint x="355" y="100" as="targetPoint" />
          </mxGeometry>
        </mxCell>
        <mxCell id="C8eVVzSPJDPYq9IVw-O5-9" value="" style="html=1;verticalAlign=bottom;endArrow=open;dashed=1;endSize=8;entryX=1.08;entryY=0.386;entryDx=0;entryDy=0;entryPerimeter=0;startArrow=none;" edge="1" parent="ma5C-SdAuBFSG-p-KBA5-1" source="C8eVVzSPJDPYq9IVw-O5-10">
          <mxGeometry x="-0.5" y="-70" relative="1" as="geometry">
            <mxPoint x="355" y="149.99999999999997" as="sourcePoint" />
            <mxPoint x="172.0999999999999" y="149.99999999999997" as="targetPoint" />
            <Array as="points" />
            <mxPoint as="offset" />
          </mxGeometry>
        </mxCell>
        <mxCell id="C8eVVzSPJDPYq9IVw-O5-10" value="显示支付成功" style="text;html=1;strokeColor=none;fillColor=none;align=center;verticalAlign=middle;whiteSpace=wrap;rounded=0;" vertex="1" parent="ma5C-SdAuBFSG-p-KBA5-1">
          <mxGeometry x="230" y="130" width="90" height="40" as="geometry" />
        </mxCell>
        <mxCell id="C8eVVzSPJDPYq9IVw-O5-11" value="" style="html=1;verticalAlign=bottom;endArrow=none;dashed=1;endSize=8;startArrow=none;" edge="1" parent="ma5C-SdAuBFSG-p-KBA5-1">
          <mxGeometry x="-0.5" y="-70" relative="1" as="geometry">
            <mxPoint x="355" y="150" as="sourcePoint" />
            <mxPoint x="310" y="150" as="targetPoint" />
            <Array as="points" />
            <mxPoint as="offset" />
          </mxGeometry>
        </mxCell>
        <mxCell id="C8eVVzSPJDPYq9IVw-O5-3" value="跳转支付页面" style="text;html=1;strokeColor=none;fillColor=none;align=center;verticalAlign=middle;whiteSpace=wrap;rounded=0;" vertex="1" parent="ma5C-SdAuBFSG-p-KBA5-1">
          <mxGeometry x="220" y="20" width="90" height="40" as="geometry" />
        </mxCell>
        <mxCell id="C8eVVzSPJDPYq9IVw-O5-12" value="" style="html=1;verticalAlign=bottom;endArrow=none;dashed=1;endSize=8;startArrow=none;entryX=1;entryY=0.5;entryDx=0;entryDy=0;" edge="1" parent="ma5C-SdAuBFSG-p-KBA5-1" target="C8eVVzSPJDPYq9IVw-O5-3">
          <mxGeometry x="-0.5" y="-70" relative="1" as="geometry">
            <mxPoint x="360" y="40" as="sourcePoint" />
            <mxPoint x="312" y="35" as="targetPoint" />
            <Array as="points" />
            <mxPoint as="offset" />
          </mxGeometry>
        </mxCell>
        <mxCell id="C8eVVzSPJDPYq9IVw-O5-0" value="输入金额" style="text;html=1;strokeColor=none;fillColor=none;align=center;verticalAlign=middle;whiteSpace=wrap;rounded=0;" vertex="1" parent="ma5C-SdAuBFSG-p-KBA5-1">
          <mxGeometry x="235" y="-50" width="60" height="40" as="geometry" />
        </mxCell>
        <mxCell id="C8eVVzSPJDPYq9IVw-O5-13" value="" style="endArrow=none;endFill=1;endSize=12;html=1;" edge="1" parent="ma5C-SdAuBFSG-p-KBA5-1" target="C8eVVzSPJDPYq9IVw-O5-0">
          <mxGeometry width="160" relative="1" as="geometry">
            <mxPoint x="180" y="-30" as="sourcePoint" />
            <mxPoint x="360" y="-30" as="targetPoint" />
          </mxGeometry>
        </mxCell>
      </root>
    </mxGraphModel>
  </diagram>
</mxfile>
